<?xml version="1.0" encoding="utf-8"?>
<!-- Generator: Adobe Illustrator 16.0.0, SVG Export Plug-In . SVG Version: 6.00 Build 0)  -->
<!DOCTYPE svg PUBLIC "-//W3C//DTD SVG 1.1//EN" "http://www.w3.org/Graphics/SVG/1.1/DTD/svg11.dtd">
<svg version="1.1" id="Layer_1" xmlns="http://www.w3.org/2000/svg" xmlns:xlink="http://www.w3.org/1999/xlink" x="0px" y="0px"
	 width="128px" height="128px" viewBox="0 0 128 128" enable-background="new 0 0 128 128" xml:space="preserve">
<path d="M87.426,64l31.673-31.673c6.444-6.444,6.444-16.891,0-23.334c-6.443-6.444-16.891-6.444-23.334,0L64.091,40.666
	L32.417,8.992c-6.443-6.443-16.89-6.444-23.334,0c-6.443,6.443-6.443,16.891,0,23.334L40.757,64L9.083,95.673
	c-6.444,6.443-6.444,16.891,0,23.334c3.222,3.223,7.444,4.833,11.667,4.833c4.222,0,8.446-1.611,11.667-4.833l31.673-31.673
	l31.674,31.673c3.222,3.222,7.444,4.833,11.667,4.833s8.445-1.611,11.667-4.833c6.444-6.443,6.444-16.891,0-23.334L87.426,64z"/>
</svg>
